<?xml version="1.0" encoding="iso-8859-1"?>
<!-- Generator: Adobe Illustrator 19.0.0, SVG Export Plug-In . SVG Version: 6.00 Build 0)  -->
<svg version="1.1" id="Capa_1" xmlns="http://www.w3.org/2000/svg" xmlns:xlink="http://www.w3.org/1999/xlink" x="0px" y="0px"
	 viewBox="0 0 512 512" style="enable-background:new 0 0 512 512;" xml:space="preserve">
<g>
	<path style="fill:#4F7097;" d="M256,0c-19.11,0-34.595,15.485-34.595,34.595S236.89,69.189,256,69.189
		c103.175,0,186.811,83.636,186.811,186.811S359.175,442.811,256,442.811S69.189,359.175,69.189,256
		c0-19.11-15.485-34.595-34.595-34.595S0,236.89,0,256c0,141.381,114.619,256,256,256s256-114.619,256-256S397.381,0,256,0z"/>
	<path style="fill:#4F7097;" d="M50.37,163.286l186.811,121.773c16.01,10.434,37.445,5.909,47.879-10.102
		s5.909-37.445-10.102-47.879L88.009,105.306c-15.568-11.084-37.168-7.431-48.239,8.123s-7.431,37.168,8.123,48.239
		C48.695,162.249,49.526,162.788,50.37,163.286z"/>
</g>
<circle style="fill:#BEF2FF;" cx="152.493" cy="52.03" r="30.443"/>
<g>
</g>
<g>
</g>
<g>
</g>
<g>
</g>
<g>
</g>
<g>
</g>
<g>
</g>
<g>
</g>
<g>
</g>
<g>
</g>
<g>
</g>
<g>
</g>
<g>
</g>
<g>
</g>
<g>
</g>
</svg>
